<mxfile host="65bd71144e">
    <diagram id="lm0y0Vqmq1mIAVt59gmz" name="Page-1">
        <mxGraphModel dx="233" dy="247" grid="1" gridSize="10" guides="1" tooltips="1" connect="1" arrows="1" fold="1" page="1" pageScale="1" pageWidth="1100" pageHeight="1700" math="0" shadow="0">
            <root>
                <mxCell id="0"/>
                <mxCell id="1" parent="0"/>
                <mxCell id="2" value="w = 4 b = 5&amp;nbsp;" style="ellipse;whiteSpace=wrap;html=1;strokeColor=#F0F0F0;fillColor=#000000;" vertex="1" parent="1">
                    <mxGeometry x="30" y="320" width="80" height="80" as="geometry"/>
                </mxCell>
                <mxCell id="5" value="" style="endArrow=classic;html=1;" edge="1" parent="1">
                    <mxGeometry width="50" height="50" relative="1" as="geometry">
                        <mxPoint x="110" y="360" as="sourcePoint"/>
                        <mxPoint x="170" y="360" as="targetPoint"/>
                    </mxGeometry>
                </mxCell>
                <mxCell id="8" value="x*w+b" style="edgeLabel;html=1;align=center;verticalAlign=middle;resizable=0;points=[];" vertex="1" connectable="0" parent="5">
                    <mxGeometry x="0.5669" y="2" relative="1" as="geometry">
                        <mxPoint x="-17" y="-18" as="offset"/>
                    </mxGeometry>
                </mxCell>
                <mxCell id="6" value="9" style="whiteSpace=wrap;html=1;aspect=fixed;" vertex="1" parent="1">
                    <mxGeometry x="170" y="340" width="40" height="40" as="geometry"/>
                </mxCell>
                <mxCell id="9" value="" style="endArrow=none;html=1;" edge="1" parent="1">
                    <mxGeometry width="50" height="50" relative="1" as="geometry">
                        <mxPoint x="240" y="520" as="sourcePoint"/>
                        <mxPoint x="240" y="280" as="targetPoint"/>
                    </mxGeometry>
                </mxCell>
                <mxCell id="15" value="*x=1" style="edgeLabel;html=1;align=center;verticalAlign=middle;resizable=0;points=[];" vertex="1" connectable="0" parent="9">
                    <mxGeometry x="0.8003" y="-1" relative="1" as="geometry">
                        <mxPoint y="-34" as="offset"/>
                    </mxGeometry>
                </mxCell>
                <mxCell id="10" value="" style="endArrow=classic;html=1;" edge="1" parent="1">
                    <mxGeometry width="50" height="50" relative="1" as="geometry">
                        <mxPoint x="350" y="360" as="sourcePoint"/>
                        <mxPoint x="410" y="360" as="targetPoint"/>
                    </mxGeometry>
                </mxCell>
                <mxCell id="11" value="x*w+b" style="edgeLabel;html=1;align=center;verticalAlign=middle;resizable=0;points=[];" vertex="1" connectable="0" parent="10">
                    <mxGeometry x="0.5669" y="2" relative="1" as="geometry">
                        <mxPoint x="-17" y="-18" as="offset"/>
                    </mxGeometry>
                </mxCell>
                <mxCell id="12" value="-4.5" style="whiteSpace=wrap;html=1;aspect=fixed;" vertex="1" parent="1">
                    <mxGeometry x="410" y="340" width="40" height="40" as="geometry"/>
                </mxCell>
                <mxCell id="13" value="w=0.20 b=-5" style="ellipse;whiteSpace=wrap;html=1;aspect=fixed;strokeColor=#F0F0F0;" vertex="1" parent="1">
                    <mxGeometry x="270" y="320" width="80" height="80" as="geometry"/>
                </mxCell>
            </root>
        </mxGraphModel>
    </diagram>
</mxfile>